<?xml version="1.0" encoding="UTF-8"?>
<svg id="Layer_1" data-name="Layer 1" xmlns="http://www.w3.org/2000/svg" viewBox="0 0 44.96 49.56">
  <defs>
    <style>
      .cls-1 {
        fill: #fff;
        stroke-width: 0px;
      }
    </style>
  </defs>
  <path class="cls-1" d="m44.96,49.56H0c1.43-12.49,2.83-24.82,4.27-37.43h7.98c-.12-4.03.57-7.71,3.87-9.88C18.06.98,20.61.05,22.9,0c5.88-.13,9.28,4.19,9.89,12.03h7.87c1.44,12.59,2.86,24.93,4.3,37.53ZM6.1,14.23c-1.28,11.18-2.54,22.17-3.81,33.29h40.37c-1.29-11.21-2.56-22.26-3.83-33.27h-6.35c.22.98.52,1.76.56,2.56.04.97.07,2.03-.31,2.87-.14.31-1.97.37-2.13.06-.43-.8-.49-1.87-.46-2.83.03-.84.37-1.68.62-2.68H14.09c.36,1.13.79,2.02.88,2.95.08.82.04,1.99-.45,2.41-.5.42-1.89.42-2.39,0-.49-.41-.53-1.6-.45-2.41.09-.93.53-1.82.9-2.95h-6.47Zm24.41-2.25c.44-3.83-.59-6.89-3.8-8.86-2.92-1.79-5.98-1.71-8.81.22-3.01,2.05-3.92,5.03-3.4,8.64h16.01Z"/>
</svg>