<?xml version="1.0" encoding="UTF-8"?>
<svg id="Layer_1" data-name="Layer 1" xmlns="http://www.w3.org/2000/svg" viewBox="0 0 26.81 29.56">
  <defs>
    <style>
      .cls-1 {
        fill: #fff;
        stroke-width: 0px;
      }
    </style>
  </defs>
  <path class="cls-1" d="m26.81,29.56H0c.85-7.45,1.69-14.8,2.55-22.32h4.76c-.07-2.4.34-4.6,2.31-5.89C10.77.58,12.29.03,13.66,0c3.51-.07,5.54,2.5,5.9,7.17h4.69c.86,7.51,1.7,14.87,2.56,22.38ZM3.64,8.48c-.76,6.67-1.51,13.22-2.27,19.85h24.08c-.77-6.68-1.53-13.27-2.28-19.84h-3.79c.13.58.31,1.05.33,1.52.03.58.04,1.21-.19,1.71-.09.19-1.18.22-1.27.03-.26-.48-.29-1.12-.27-1.69.02-.5.22-1,.37-1.6h-9.94c.21.67.47,1.21.53,1.76.05.49.03,1.19-.27,1.44-.3.25-1.13.25-1.43,0-.29-.25-.32-.95-.27-1.44.05-.55.32-1.09.53-1.76h-3.86Zm14.56-1.34c.26-2.29-.35-4.11-2.27-5.28-1.74-1.07-3.56-1.02-5.25.13-1.79,1.22-2.34,3-2.03,5.15h9.55Z"/>
</svg>