<?xml version="1.0" encoding="UTF-8"?>
<svg id="Layer_1" data-name="Layer 1" xmlns="http://www.w3.org/2000/svg" viewBox="0 0 26.98 29.63">
  <defs>
    <style>
      .cls-1 {
        fill: #fff;
        stroke-width: 0px;
      }
    </style>
  </defs>
  <path class="cls-1" d="m24.4,7.07h-4.62C19.36,2.43,17.22-.05,13.73,0c-1.32.03-2.86.54-4.11,1.36-2.14,1.41-2.43,3.78-2.39,5.77H2.57L0,29.63h26.98l-2.58-22.56ZM10.94,2.41c1.58-1.08,3.28-1.13,4.91-.13,1.63,1,2.34,2.56,2.14,4.75h-8.98c-.24-2.06.39-3.58,1.92-4.63Zm-3.71,6.7c-.15.41-.29.8-.33,1.2-.04.37-.08,1.27.35,1.63.39.32,1.34.32,1.72,0,.42-.36.39-1.26.35-1.63-.04-.4-.18-.79-.33-1.2-.03-.09-.06-.17-.09-.26h9.14c-.02.07-.04.15-.06.22-.11.38-.21.73-.23,1.1-.02.5,0,1.23.3,1.79.04.07.17.27.86.25.71-.02.8-.23.83-.3.24-.53.23-1.18.21-1.8-.02-.34-.11-.68-.2-1.03-.02-.07-.04-.14-.06-.21h3.2l2.19,19.06H1.9l2.18-19.08h3.24c-.03.09-.06.18-.1.26Z"/>
</svg>